<?xml version="1.0" encoding="UTF-8"?>
<svg width="120px" height="120px" viewBox="0 0 24 24" stroke-width="1.5" fill="none" xmlns="http://www.w3.org/2000/svg" color="#4facfe">
  <path d="M12 7V12L14.5 13.5" stroke="#4facfe" stroke-width="1.5" stroke-linecap="round" stroke-linejoin="round"></path>
  <path d="M12 22C17.5228 22 22 17.5228 22 12C22 6.47715 17.5228 2 12 2C6.47715 2 2 6.47715 2 12C2 17.5228 6.47715 22 12 22Z" stroke="#4facfe" stroke-width="1.5" stroke-linecap="round" stroke-linejoin="round"></path>
  <path d="M9 5.6C9 5.6 9.5 5 12 5C14.5 5 15 5.6 15 5.6" stroke="#4facfe" stroke-width="1.5" stroke-linecap="round" stroke-linejoin="round"></path>
  <path d="M5.6 9C5.6 9 6.2 9.5 6.2 12C6.2 14.5 5.6 15 5.6 15" stroke="#4facfe" stroke-width="1.5" stroke-linecap="round" stroke-linejoin="round"></path>
  <path d="M9 18.4C9 18.4 9.5 19 12 19C14.5 19 15 18.4 15 18.4" stroke="#4facfe" stroke-width="1.5" stroke-linecap="round" stroke-linejoin="round"></path>
  <path d="M18.4 9C18.4 9 17.8 9.5 17.8 12C17.8 14.5 18.4 15 18.4 15" stroke="#4facfe" stroke-width="1.5" stroke-linecap="round" stroke-linejoin="round"></path>
</svg>